<mxfile host="app.diagrams.net" agent="Mozilla/5.0 (Windows NT 10.0; Win64; x64) AppleWebKit/537.36 (KHTML, like Gecko) Chrome/122.0.0.0 Safari/537.36 Edg/122.0.0.0" version="27.0.8">
  <diagram name="Page-1" id="cxBWBQMw9Y_2NdGrwYWV">
    <mxGraphModel dx="1244" dy="656" grid="1" gridSize="35" guides="1" tooltips="1" connect="1" arrows="1" fold="1" page="1" pageScale="1" pageWidth="850" pageHeight="1100" math="0" shadow="0">
      <root>
        <mxCell id="0" />
        <mxCell id="1" parent="0" />
        <mxCell id="Hcx9xvRhPuMiSi3vXPX2-5" value="Student Assessments" style="swimlane;fontStyle=0;childLayout=stackLayout;horizontal=1;startSize=26;fillColor=none;horizontalStack=0;resizeParent=1;resizeParentMax=0;resizeLast=0;collapsible=1;marginBottom=0;html=1;" vertex="1" parent="1">
          <mxGeometry x="285" y="140" width="140" height="78" as="geometry" />
        </mxCell>
        <mxCell id="Hcx9xvRhPuMiSi3vXPX2-6" value="D.O.B" style="text;strokeColor=none;fillColor=none;align=left;verticalAlign=top;spacingLeft=4;spacingRight=4;overflow=hidden;rotatable=0;points=[[0,0.5],[1,0.5]];portConstraint=eastwest;whiteSpace=wrap;html=1;" vertex="1" parent="Hcx9xvRhPuMiSi3vXPX2-5">
          <mxGeometry y="26" width="140" height="26" as="geometry" />
        </mxCell>
        <mxCell id="Hcx9xvRhPuMiSi3vXPX2-7" value="Student Name" style="text;strokeColor=none;fillColor=none;align=left;verticalAlign=top;spacingLeft=4;spacingRight=4;overflow=hidden;rotatable=0;points=[[0,0.5],[1,0.5]];portConstraint=eastwest;whiteSpace=wrap;html=1;" vertex="1" parent="Hcx9xvRhPuMiSi3vXPX2-5">
          <mxGeometry y="52" width="140" height="26" as="geometry" />
        </mxCell>
        <mxCell id="Hcx9xvRhPuMiSi3vXPX2-12" value="Psychological Analysis" style="swimlane;fontStyle=0;childLayout=stackLayout;horizontal=1;startSize=26;fillColor=none;horizontalStack=0;resizeParent=1;resizeParentMax=0;resizeLast=0;collapsible=1;marginBottom=0;html=1;" vertex="1" parent="1">
          <mxGeometry x="105" y="350" width="140" height="104" as="geometry" />
        </mxCell>
        <mxCell id="Hcx9xvRhPuMiSi3vXPX2-13" value="Age" style="text;strokeColor=none;fillColor=none;align=left;verticalAlign=top;spacingLeft=4;spacingRight=4;overflow=hidden;rotatable=0;points=[[0,0.5],[1,0.5]];portConstraint=eastwest;whiteSpace=wrap;html=1;" vertex="1" parent="Hcx9xvRhPuMiSi3vXPX2-12">
          <mxGeometry y="26" width="140" height="26" as="geometry" />
        </mxCell>
        <mxCell id="Hcx9xvRhPuMiSi3vXPX2-17" value="Comorbid Diagonosis" style="text;strokeColor=none;fillColor=none;align=left;verticalAlign=top;spacingLeft=4;spacingRight=4;overflow=hidden;rotatable=0;points=[[0,0.5],[1,0.5]];portConstraint=eastwest;whiteSpace=wrap;html=1;" vertex="1" parent="Hcx9xvRhPuMiSi3vXPX2-12">
          <mxGeometry y="52" width="140" height="26" as="geometry" />
        </mxCell>
        <mxCell id="Hcx9xvRhPuMiSi3vXPX2-19" value="Adaptive Functioning" style="text;strokeColor=none;fillColor=none;align=left;verticalAlign=top;spacingLeft=4;spacingRight=4;overflow=hidden;rotatable=0;points=[[0,0.5],[1,0.5]];portConstraint=eastwest;whiteSpace=wrap;html=1;" vertex="1" parent="Hcx9xvRhPuMiSi3vXPX2-12">
          <mxGeometry y="78" width="140" height="26" as="geometry" />
        </mxCell>
        <mxCell id="Hcx9xvRhPuMiSi3vXPX2-16" style="edgeStyle=orthogonalEdgeStyle;rounded=0;orthogonalLoop=1;jettySize=auto;html=1;exitX=0;exitY=0.5;exitDx=0;exitDy=0;entryX=0.5;entryY=0;entryDx=0;entryDy=0;startArrow=blockThin;startFill=1;" edge="1" parent="1" source="Hcx9xvRhPuMiSi3vXPX2-6" target="Hcx9xvRhPuMiSi3vXPX2-12">
          <mxGeometry relative="1" as="geometry" />
        </mxCell>
        <mxCell id="Hcx9xvRhPuMiSi3vXPX2-20" value="Neurological Analysis" style="swimlane;fontStyle=0;childLayout=stackLayout;horizontal=1;startSize=26;fillColor=none;horizontalStack=0;resizeParent=1;resizeParentMax=0;resizeLast=0;collapsible=1;marginBottom=0;html=1;" vertex="1" parent="1">
          <mxGeometry x="420" y="350" width="140" height="104" as="geometry" />
        </mxCell>
        <mxCell id="Hcx9xvRhPuMiSi3vXPX2-21" value="Epilepsy" style="text;strokeColor=none;fillColor=none;align=left;verticalAlign=top;spacingLeft=4;spacingRight=4;overflow=hidden;rotatable=0;points=[[0,0.5],[1,0.5]];portConstraint=eastwest;whiteSpace=wrap;html=1;" vertex="1" parent="Hcx9xvRhPuMiSi3vXPX2-20">
          <mxGeometry y="26" width="140" height="26" as="geometry" />
        </mxCell>
        <mxCell id="Hcx9xvRhPuMiSi3vXPX2-22" value="tremors" style="text;strokeColor=none;fillColor=none;align=left;verticalAlign=top;spacingLeft=4;spacingRight=4;overflow=hidden;rotatable=0;points=[[0,0.5],[1,0.5]];portConstraint=eastwest;whiteSpace=wrap;html=1;" vertex="1" parent="Hcx9xvRhPuMiSi3vXPX2-20">
          <mxGeometry y="52" width="140" height="26" as="geometry" />
        </mxCell>
        <mxCell id="Hcx9xvRhPuMiSi3vXPX2-23" value="Balance" style="text;strokeColor=none;fillColor=none;align=left;verticalAlign=top;spacingLeft=4;spacingRight=4;overflow=hidden;rotatable=0;points=[[0,0.5],[1,0.5]];portConstraint=eastwest;whiteSpace=wrap;html=1;" vertex="1" parent="Hcx9xvRhPuMiSi3vXPX2-20">
          <mxGeometry y="78" width="140" height="26" as="geometry" />
        </mxCell>
        <mxCell id="Hcx9xvRhPuMiSi3vXPX2-24" style="edgeStyle=orthogonalEdgeStyle;rounded=0;orthogonalLoop=1;jettySize=auto;html=1;entryX=0;entryY=0.5;entryDx=0;entryDy=0;startArrow=classic;startFill=1;" edge="1" parent="1" target="Hcx9xvRhPuMiSi3vXPX2-20">
          <mxGeometry relative="1" as="geometry">
            <mxPoint x="245" y="416" as="sourcePoint" />
          </mxGeometry>
        </mxCell>
        <mxCell id="Hcx9xvRhPuMiSi3vXPX2-25" value="&lt;span style=&quot;text-align: left; text-wrap: wrap;&quot;&gt;Comorbid Diagonosis&lt;/span&gt;" style="swimlane;fontStyle=0;childLayout=stackLayout;horizontal=1;startSize=26;fillColor=none;horizontalStack=0;resizeParent=1;resizeParentMax=0;resizeLast=0;collapsible=1;marginBottom=0;html=1;" vertex="1" parent="1">
          <mxGeometry x="420" y="485" width="140" height="130" as="geometry" />
        </mxCell>
        <mxCell id="Hcx9xvRhPuMiSi3vXPX2-26" value="Autism" style="text;strokeColor=none;fillColor=none;align=left;verticalAlign=top;spacingLeft=4;spacingRight=4;overflow=hidden;rotatable=0;points=[[0,0.5],[1,0.5]];portConstraint=eastwest;whiteSpace=wrap;html=1;" vertex="1" parent="Hcx9xvRhPuMiSi3vXPX2-25">
          <mxGeometry y="26" width="140" height="26" as="geometry" />
        </mxCell>
        <mxCell id="Hcx9xvRhPuMiSi3vXPX2-27" value="ADHD" style="text;strokeColor=none;fillColor=none;align=left;verticalAlign=top;spacingLeft=4;spacingRight=4;overflow=hidden;rotatable=0;points=[[0,0.5],[1,0.5]];portConstraint=eastwest;whiteSpace=wrap;html=1;" vertex="1" parent="Hcx9xvRhPuMiSi3vXPX2-25">
          <mxGeometry y="52" width="140" height="26" as="geometry" />
        </mxCell>
        <mxCell id="Hcx9xvRhPuMiSi3vXPX2-28" value="Mood" style="text;strokeColor=none;fillColor=none;align=left;verticalAlign=top;spacingLeft=4;spacingRight=4;overflow=hidden;rotatable=0;points=[[0,0.5],[1,0.5]];portConstraint=eastwest;whiteSpace=wrap;html=1;" vertex="1" parent="Hcx9xvRhPuMiSi3vXPX2-25">
          <mxGeometry y="78" width="140" height="26" as="geometry" />
        </mxCell>
        <mxCell id="Hcx9xvRhPuMiSi3vXPX2-29" value="Others" style="text;strokeColor=none;fillColor=none;align=left;verticalAlign=top;spacingLeft=4;spacingRight=4;overflow=hidden;rotatable=0;points=[[0,0.5],[1,0.5]];portConstraint=eastwest;whiteSpace=wrap;html=1;" vertex="1" parent="Hcx9xvRhPuMiSi3vXPX2-25">
          <mxGeometry y="104" width="140" height="26" as="geometry" />
        </mxCell>
        <mxCell id="Hcx9xvRhPuMiSi3vXPX2-37" style="edgeStyle=orthogonalEdgeStyle;rounded=0;orthogonalLoop=1;jettySize=auto;html=1;exitX=0.5;exitY=0;exitDx=0;exitDy=0;entryX=1;entryY=0.5;entryDx=0;entryDy=0;" edge="1" parent="1" source="Hcx9xvRhPuMiSi3vXPX2-31" target="Hcx9xvRhPuMiSi3vXPX2-19">
          <mxGeometry relative="1" as="geometry" />
        </mxCell>
        <mxCell id="Hcx9xvRhPuMiSi3vXPX2-31" value="&lt;span style=&quot;text-align: left; text-wrap: wrap;&quot;&gt;IQ score&lt;/span&gt;" style="swimlane;fontStyle=0;childLayout=stackLayout;horizontal=1;startSize=26;fillColor=none;horizontalStack=0;resizeParent=1;resizeParentMax=0;resizeLast=0;collapsible=1;marginBottom=0;html=1;" vertex="1" parent="1">
          <mxGeometry x="280" y="630" width="140" height="104" as="geometry" />
        </mxCell>
        <mxCell id="Hcx9xvRhPuMiSi3vXPX2-32" value="relative IQ score" style="text;strokeColor=none;fillColor=none;align=left;verticalAlign=top;spacingLeft=4;spacingRight=4;overflow=hidden;rotatable=0;points=[[0,0.5],[1,0.5]];portConstraint=eastwest;whiteSpace=wrap;html=1;" vertex="1" parent="Hcx9xvRhPuMiSi3vXPX2-31">
          <mxGeometry y="26" width="140" height="26" as="geometry" />
        </mxCell>
        <mxCell id="Hcx9xvRhPuMiSi3vXPX2-33" value="Standard score" style="text;strokeColor=none;fillColor=none;align=left;verticalAlign=top;spacingLeft=4;spacingRight=4;overflow=hidden;rotatable=0;points=[[0,0.5],[1,0.5]];portConstraint=eastwest;whiteSpace=wrap;html=1;" vertex="1" parent="Hcx9xvRhPuMiSi3vXPX2-31">
          <mxGeometry y="52" width="140" height="26" as="geometry" />
        </mxCell>
        <mxCell id="Hcx9xvRhPuMiSi3vXPX2-34" value="category" style="text;strokeColor=none;fillColor=none;align=left;verticalAlign=top;spacingLeft=4;spacingRight=4;overflow=hidden;rotatable=0;points=[[0,0.5],[1,0.5]];portConstraint=eastwest;whiteSpace=wrap;html=1;" vertex="1" parent="Hcx9xvRhPuMiSi3vXPX2-31">
          <mxGeometry y="78" width="140" height="26" as="geometry" />
        </mxCell>
        <mxCell id="Hcx9xvRhPuMiSi3vXPX2-42" style="edgeStyle=orthogonalEdgeStyle;rounded=0;orthogonalLoop=1;jettySize=auto;html=1;exitX=0.5;exitY=0;exitDx=0;exitDy=0;entryX=0;entryY=0.5;entryDx=0;entryDy=0;" edge="1" parent="1" source="Hcx9xvRhPuMiSi3vXPX2-38" target="Hcx9xvRhPuMiSi3vXPX2-19">
          <mxGeometry relative="1" as="geometry" />
        </mxCell>
        <mxCell id="Hcx9xvRhPuMiSi3vXPX2-38" value="&lt;span style=&quot;text-align: left; text-wrap: wrap;&quot;&gt;IQ score&lt;/span&gt;" style="swimlane;fontStyle=0;childLayout=stackLayout;horizontal=1;startSize=26;fillColor=none;horizontalStack=0;resizeParent=1;resizeParentMax=0;resizeLast=0;collapsible=1;marginBottom=0;html=1;" vertex="1" parent="1">
          <mxGeometry x="105" y="630" width="140" height="78" as="geometry" />
        </mxCell>
        <mxCell id="Hcx9xvRhPuMiSi3vXPX2-39" value="verbal score" style="text;strokeColor=none;fillColor=none;align=left;verticalAlign=top;spacingLeft=4;spacingRight=4;overflow=hidden;rotatable=0;points=[[0,0.5],[1,0.5]];portConstraint=eastwest;whiteSpace=wrap;html=1;" vertex="1" parent="Hcx9xvRhPuMiSi3vXPX2-38">
          <mxGeometry y="26" width="140" height="26" as="geometry" />
        </mxCell>
        <mxCell id="Hcx9xvRhPuMiSi3vXPX2-40" value="non verbal score" style="text;strokeColor=none;fillColor=none;align=left;verticalAlign=top;spacingLeft=4;spacingRight=4;overflow=hidden;rotatable=0;points=[[0,0.5],[1,0.5]];portConstraint=eastwest;whiteSpace=wrap;html=1;" vertex="1" parent="Hcx9xvRhPuMiSi3vXPX2-38">
          <mxGeometry y="52" width="140" height="26" as="geometry" />
        </mxCell>
        <mxCell id="Hcx9xvRhPuMiSi3vXPX2-43" style="edgeStyle=orthogonalEdgeStyle;rounded=0;orthogonalLoop=1;jettySize=auto;html=1;exitX=0;exitY=0.5;exitDx=0;exitDy=0;entryX=0.993;entryY=0.09;entryDx=0;entryDy=0;entryPerimeter=0;" edge="1" parent="1" source="Hcx9xvRhPuMiSi3vXPX2-26" target="Hcx9xvRhPuMiSi3vXPX2-13">
          <mxGeometry relative="1" as="geometry">
            <Array as="points">
              <mxPoint x="315" y="524" />
              <mxPoint x="315" y="378" />
            </Array>
          </mxGeometry>
        </mxCell>
        <mxCell id="Hcx9xvRhPuMiSi3vXPX2-45" value="Occupational therapy" style="swimlane;fontStyle=0;childLayout=stackLayout;horizontal=1;startSize=26;fillColor=none;horizontalStack=0;resizeParent=1;resizeParentMax=0;resizeLast=0;collapsible=1;marginBottom=0;html=1;" vertex="1" parent="1">
          <mxGeometry x="630" y="166" width="140" height="104" as="geometry" />
        </mxCell>
        <mxCell id="Hcx9xvRhPuMiSi3vXPX2-46" value="Item 1" style="text;strokeColor=none;fillColor=none;align=left;verticalAlign=top;spacingLeft=4;spacingRight=4;overflow=hidden;rotatable=0;points=[[0,0.5],[1,0.5]];portConstraint=eastwest;whiteSpace=wrap;html=1;" vertex="1" parent="Hcx9xvRhPuMiSi3vXPX2-45">
          <mxGeometry y="26" width="140" height="26" as="geometry" />
        </mxCell>
        <mxCell id="Hcx9xvRhPuMiSi3vXPX2-47" value="Item 2" style="text;strokeColor=none;fillColor=none;align=left;verticalAlign=top;spacingLeft=4;spacingRight=4;overflow=hidden;rotatable=0;points=[[0,0.5],[1,0.5]];portConstraint=eastwest;whiteSpace=wrap;html=1;" vertex="1" parent="Hcx9xvRhPuMiSi3vXPX2-45">
          <mxGeometry y="52" width="140" height="26" as="geometry" />
        </mxCell>
        <mxCell id="Hcx9xvRhPuMiSi3vXPX2-48" value="Item 3" style="text;strokeColor=none;fillColor=none;align=left;verticalAlign=top;spacingLeft=4;spacingRight=4;overflow=hidden;rotatable=0;points=[[0,0.5],[1,0.5]];portConstraint=eastwest;whiteSpace=wrap;html=1;" vertex="1" parent="Hcx9xvRhPuMiSi3vXPX2-45">
          <mxGeometry y="78" width="140" height="26" as="geometry" />
        </mxCell>
        <mxCell id="Hcx9xvRhPuMiSi3vXPX2-49" style="edgeStyle=orthogonalEdgeStyle;rounded=0;orthogonalLoop=1;jettySize=auto;html=1;exitX=1;exitY=0.5;exitDx=0;exitDy=0;entryX=0.5;entryY=0;entryDx=0;entryDy=0;" edge="1" parent="1" source="Hcx9xvRhPuMiSi3vXPX2-6" target="Hcx9xvRhPuMiSi3vXPX2-45">
          <mxGeometry relative="1" as="geometry" />
        </mxCell>
      </root>
    </mxGraphModel>
  </diagram>
</mxfile>
